<svg width="453" height="44" viewBox="0 0 453 44" fill="none" xmlns="http://www.w3.org/2000/svg">
<path d="M2.232 35V9.8H14.364C16.716 9.8 18.744 10.184 20.448 10.952C22.176 11.72 23.508 12.824 24.444 14.264C25.38 15.68 25.848 17.36 25.848 19.304C25.848 21.248 25.38 22.928 24.444 24.344C23.508 25.76 22.176 26.864 20.448 27.656C18.744 28.424 16.716 28.808 14.364 28.808H6.948L10.728 25.172V35H2.232ZM10.728 26.108L6.948 22.256H13.824C15 22.256 15.864 21.992 16.416 21.464C16.992 20.936 17.28 20.216 17.28 19.304C17.28 18.392 16.992 17.672 16.416 17.144C15.864 16.616 15 16.352 13.824 16.352H6.948L10.728 12.5V26.108ZM41.591 35.576C39.551 35.576 37.655 35.252 35.903 34.604C34.175 33.956 32.675 33.044 31.403 31.868C30.131 30.668 29.135 29.264 28.415 27.656C27.719 26.048 27.371 24.296 27.371 22.4C27.371 20.48 27.719 18.728 28.415 17.144C29.135 15.536 30.131 14.144 31.403 12.968C32.675 11.768 34.175 10.844 35.903 10.196C37.655 9.548 39.551 9.224 41.591 9.224C43.655 9.224 45.551 9.548 47.279 10.196C49.007 10.844 50.507 11.768 51.779 12.968C53.051 14.144 54.035 15.536 54.731 17.144C55.451 18.728 55.811 20.48 55.811 22.4C55.811 24.296 55.451 26.048 54.731 27.656C54.035 29.264 53.051 30.668 51.779 31.868C50.507 33.044 49.007 33.956 47.279 34.604C45.551 35.252 43.655 35.576 41.591 35.576ZM41.591 28.7C42.383 28.7 43.115 28.556 43.787 28.268C44.483 27.98 45.083 27.572 45.587 27.044C46.115 26.492 46.523 25.832 46.811 25.064C47.099 24.272 47.243 23.384 47.243 22.4C47.243 21.416 47.099 20.54 46.811 19.772C46.523 18.98 46.115 18.32 45.587 17.792C45.083 17.24 44.483 16.82 43.787 16.532C43.115 16.244 42.383 16.1 41.591 16.1C40.799 16.1 40.055 16.244 39.359 16.532C38.687 16.82 38.087 17.24 37.559 17.792C37.055 18.32 36.659 18.98 36.371 19.772C36.083 20.54 35.939 21.416 35.939 22.4C35.939 23.384 36.083 24.272 36.371 25.064C36.659 25.832 37.055 26.492 37.559 27.044C38.087 27.572 38.687 27.98 39.359 28.268C40.055 28.556 40.799 28.7 41.591 28.7ZM71.5407 35.576C69.5247 35.576 67.6527 35.264 65.9247 34.64C64.2207 33.992 62.7327 33.08 61.4607 31.904C60.2127 30.728 59.2407 29.336 58.5447 27.728C57.8487 26.12 57.5007 24.344 57.5007 22.4C57.5007 20.456 57.8487 18.68 58.5447 17.072C59.2407 15.464 60.2127 14.072 61.4607 12.896C62.7327 11.72 64.2207 10.82 65.9247 10.196C67.6527 9.548 69.5247 9.224 71.5407 9.224C74.0127 9.224 76.1967 9.656 78.0927 10.52C80.0127 11.384 81.5967 12.632 82.8447 14.264L77.4807 19.052C76.7367 18.116 75.9087 17.396 74.9967 16.892C74.1087 16.364 73.1007 16.1 71.9727 16.1C71.0847 16.1 70.2807 16.244 69.5607 16.532C68.8407 16.82 68.2167 17.24 67.6887 17.792C67.1847 18.344 66.7887 19.016 66.5007 19.808C66.2127 20.576 66.0687 21.44 66.0687 22.4C66.0687 23.36 66.2127 24.236 66.5007 25.028C66.7887 25.796 67.1847 26.456 67.6887 27.008C68.2167 27.56 68.8407 27.98 69.5607 28.268C70.2807 28.556 71.0847 28.7 71.9727 28.7C73.1007 28.7 74.1087 28.448 74.9967 27.944C75.9087 27.416 76.7367 26.684 77.4807 25.748L82.8447 30.536C81.5967 32.144 80.0127 33.392 78.0927 34.28C76.1967 35.144 74.0127 35.576 71.5407 35.576ZM90.9599 35V14.552L92.7959 16.388H83.5799V9.8H106.692V16.388H97.4759L99.3119 14.552V35H90.9599ZM117.27 19.16H128.502V25.28H117.27V19.16ZM117.846 28.592H130.446V35H109.494V9.8H129.978V16.208H117.846V28.592ZM132.132 9.764H141.852L145.524 15.704L149.196 9.764H159.024L150.852 21.788L159.78 35H149.772L145.524 28.484L141.348 35H131.592L140.448 22.184L132.132 9.764ZM174.025 35.576C171.985 35.576 170.089 35.252 168.337 34.604C166.609 33.956 165.109 33.044 163.837 31.868C162.565 30.668 161.569 29.264 160.849 27.656C160.153 26.048 159.805 24.296 159.805 22.4C159.805 20.48 160.153 18.728 160.849 17.144C161.569 15.536 162.565 14.144 163.837 12.968C165.109 11.768 166.609 10.844 168.337 10.196C170.089 9.548 171.985 9.224 174.025 9.224C176.089 9.224 177.985 9.548 179.713 10.196C181.441 10.844 182.941 11.768 184.213 12.968C185.485 14.144 186.469 15.536 187.165 17.144C187.885 18.728 188.245 20.48 188.245 22.4C188.245 24.296 187.885 26.048 187.165 27.656C186.469 29.264 185.485 30.668 184.213 31.868C182.941 33.044 181.441 33.956 179.713 34.604C177.985 35.252 176.089 35.576 174.025 35.576ZM174.025 28.7C174.817 28.7 175.549 28.556 176.221 28.268C176.917 27.98 177.517 27.572 178.021 27.044C178.549 26.492 178.957 25.832 179.245 25.064C179.533 24.272 179.677 23.384 179.677 22.4C179.677 21.416 179.533 20.54 179.245 19.772C178.957 18.98 178.549 18.32 178.021 17.792C177.517 17.24 176.917 16.82 176.221 16.532C175.549 16.244 174.817 16.1 174.025 16.1C173.233 16.1 172.489 16.244 171.793 16.532C171.121 16.82 170.521 17.24 169.993 17.792C169.489 18.32 169.093 18.98 168.805 19.772C168.517 20.54 168.373 21.416 168.373 22.4C168.373 23.384 168.517 24.272 168.805 25.064C169.093 25.832 169.489 26.492 169.993 27.044C170.521 27.572 171.121 27.98 171.793 28.268C172.489 28.556 173.233 28.7 174.025 28.7ZM188.804 9.764H198.524L202.196 15.704L205.868 9.764H215.696L207.524 21.788L216.452 35H206.444L202.196 28.484L198.02 35H188.264L197.12 22.184L188.804 9.764ZM218.056 35V9.8H230.188C232.54 9.8 234.568 10.184 236.272 10.952C238 11.72 239.332 12.824 240.268 14.264C241.204 15.68 241.672 17.36 241.672 19.304C241.672 21.248 241.204 22.928 240.268 24.344C239.332 25.76 238 26.864 236.272 27.656C234.568 28.424 232.54 28.808 230.188 28.808H222.772L226.552 25.172V35H218.056ZM226.552 26.108L222.772 22.256H229.648C230.824 22.256 231.688 21.992 232.24 21.464C232.816 20.936 233.104 20.216 233.104 19.304C233.104 18.392 232.816 17.672 232.24 17.144C231.688 16.616 230.824 16.352 229.648 16.352H222.772L226.552 12.5V26.108ZM240.858 35L251.874 9.8H260.226L271.242 35H262.458L254.322 13.832H257.634L249.498 35H240.858ZM247.41 30.608L249.57 24.488H261.162L263.322 30.608H247.41ZM289.912 9.8H298.408V35H289.912V9.8ZM282.064 35H273.568V9.8H282.064V35ZM290.488 25.712H281.488V18.728H290.488V25.712ZM300.764 35L311.78 9.8H320.132L331.148 35H322.364L314.228 13.832H317.54L309.404 35H300.764ZM307.316 30.608L309.476 24.488H321.068L323.228 30.608H307.316Z" fill="#434C5E"/>
<path d="M340.18 20.05C339.673 20.05 339.217 19.9367 338.81 19.71C338.403 19.4767 338.083 19.1567 337.85 18.75C337.617 18.3433 337.5 17.8833 337.5 17.37C337.5 16.8567 337.617 16.3967 337.85 15.99C338.083 15.5833 338.403 15.2667 338.81 15.04C339.217 14.8133 339.673 14.7 340.18 14.7C340.687 14.7 341.143 14.8133 341.55 15.04C341.957 15.2667 342.273 15.5833 342.5 15.99C342.733 16.3967 342.85 16.8567 342.85 17.37C342.85 17.8833 342.733 18.3433 342.5 18.75C342.273 19.1567 341.957 19.4767 341.55 19.71C341.143 19.9367 340.687 20.05 340.18 20.05ZM340.18 19.42C340.553 19.42 340.887 19.3367 341.18 19.17C341.48 18.9967 341.713 18.7533 341.88 18.44C342.047 18.1267 342.13 17.77 342.13 17.37C342.13 16.97 342.047 16.6133 341.88 16.3C341.713 15.9867 341.48 15.7467 341.18 15.58C340.887 15.4067 340.553 15.32 340.18 15.32C339.807 15.32 339.47 15.4067 339.17 15.58C338.877 15.7467 338.643 15.9867 338.47 16.3C338.303 16.6133 338.22 16.97 338.22 17.37C338.22 17.77 338.303 18.1267 338.47 18.44C338.643 18.7533 338.877 18.9967 339.17 19.17C339.47 19.3367 339.807 19.42 340.18 19.42ZM347.872 15.37H345.882V20H345.172V15.37H343.182V14.74H347.872V15.37ZM352.249 17.28C352.962 17.4467 353.319 17.8767 353.319 18.57C353.319 19.03 353.149 19.3833 352.809 19.63C352.469 19.8767 351.962 20 351.289 20H348.899V14.74H351.219C351.819 14.74 352.289 14.8567 352.629 15.09C352.969 15.3233 353.139 15.6567 353.139 16.09C353.139 16.3767 353.059 16.6233 352.899 16.83C352.745 17.03 352.529 17.18 352.249 17.28ZM349.589 17.08H351.169C351.575 17.08 351.885 17.0033 352.099 16.85C352.319 16.6967 352.429 16.4733 352.429 16.18C352.429 15.8867 352.319 15.6667 352.099 15.52C351.885 15.3733 351.575 15.3 351.169 15.3H349.589V17.08ZM351.259 19.44C351.712 19.44 352.052 19.3667 352.279 19.22C352.505 19.0733 352.619 18.8433 352.619 18.53C352.619 18.2167 352.515 17.9867 352.309 17.84C352.102 17.6867 351.775 17.61 351.329 17.61H349.589V19.44H351.259ZM359.583 17.59H355.183C355.223 18.1367 355.433 18.58 355.813 18.92C356.193 19.2533 356.673 19.42 357.253 19.42C357.579 19.42 357.879 19.3633 358.153 19.25C358.426 19.13 358.663 18.9567 358.863 18.73L359.263 19.19C359.029 19.47 358.736 19.6833 358.383 19.83C358.036 19.9767 357.653 20.05 357.233 20.05C356.693 20.05 356.213 19.9367 355.793 19.71C355.379 19.4767 355.056 19.1567 354.823 18.75C354.589 18.3433 354.473 17.8833 354.473 17.37C354.473 16.8567 354.583 16.3967 354.803 15.99C355.029 15.5833 355.336 15.2667 355.723 15.04C356.116 14.8133 356.556 14.7 357.043 14.7C357.529 14.7 357.966 14.8133 358.353 15.04C358.739 15.2667 359.043 15.5833 359.263 15.99C359.483 16.39 359.593 16.85 359.593 17.37L359.583 17.59ZM357.043 15.31C356.536 15.31 356.109 15.4733 355.763 15.8C355.423 16.12 355.229 16.54 355.183 17.06H358.913C358.866 16.54 358.669 16.12 358.323 15.8C357.983 15.4733 357.556 15.31 357.043 15.31ZM364.63 15.37H362.64V20H361.93V15.37H359.94V14.74H364.63V15.37ZM367.612 20.05C367.092 20.05 366.626 19.9367 366.212 19.71C365.806 19.4833 365.486 19.1667 365.252 18.76C365.019 18.3467 364.902 17.8833 364.902 17.37C364.902 16.8567 365.019 16.3967 365.252 15.99C365.486 15.5833 365.806 15.2667 366.212 15.04C366.626 14.8133 367.092 14.7 367.612 14.7C368.066 14.7 368.469 14.79 368.822 14.97C369.182 15.1433 369.466 15.4 369.672 15.74L369.142 16.1C368.969 15.84 368.749 15.6467 368.482 15.52C368.216 15.3867 367.926 15.32 367.612 15.32C367.232 15.32 366.889 15.4067 366.582 15.58C366.282 15.7467 366.046 15.9867 365.872 16.3C365.706 16.6133 365.622 16.97 365.622 17.37C365.622 17.7767 365.706 18.1367 365.872 18.45C366.046 18.7567 366.282 18.9967 366.582 19.17C366.889 19.3367 367.232 19.42 367.612 19.42C367.926 19.42 368.216 19.3567 368.482 19.23C368.749 19.1033 368.969 18.91 369.142 18.65L369.672 19.01C369.466 19.35 369.182 19.61 368.822 19.79C368.462 19.9633 368.059 20.05 367.612 20.05ZM374.649 15.37H372.659V20H371.949V15.37H369.959V14.74H374.649V15.37ZM379.026 17.28C379.739 17.4467 380.096 17.8767 380.096 18.57C380.096 19.03 379.926 19.3833 379.586 19.63C379.246 19.8767 378.739 20 378.066 20H375.676V14.74H377.996C378.596 14.74 379.066 14.8567 379.406 15.09C379.746 15.3233 379.916 15.6567 379.916 16.09C379.916 16.3767 379.836 16.6233 379.676 16.83C379.523 17.03 379.306 17.18 379.026 17.28ZM376.366 17.08H377.946C378.353 17.08 378.663 17.0033 378.876 16.85C379.096 16.6967 379.206 16.4733 379.206 16.18C379.206 15.8867 379.096 15.6667 378.876 15.52C378.663 15.3733 378.353 15.3 377.946 15.3H376.366V17.08ZM378.036 19.44C378.489 19.44 378.829 19.3667 379.056 19.22C379.283 19.0733 379.396 18.8433 379.396 18.53C379.396 18.2167 379.293 17.9867 379.086 17.84C378.879 17.6867 378.553 17.61 378.106 17.61H376.366V19.44H378.036ZM386.36 17.59H381.96C382 18.1367 382.21 18.58 382.59 18.92C382.97 19.2533 383.45 19.42 384.03 19.42C384.357 19.42 384.657 19.3633 384.93 19.25C385.203 19.13 385.44 18.9567 385.64 18.73L386.04 19.19C385.807 19.47 385.513 19.6833 385.16 19.83C384.813 19.9767 384.43 20.05 384.01 20.05C383.47 20.05 382.99 19.9367 382.57 19.71C382.157 19.4767 381.833 19.1567 381.6 18.75C381.367 18.3433 381.25 17.8833 381.25 17.37C381.25 16.8567 381.36 16.3967 381.58 15.99C381.807 15.5833 382.113 15.2667 382.5 15.04C382.893 14.8133 383.333 14.7 383.82 14.7C384.307 14.7 384.743 14.8133 385.13 15.04C385.517 15.2667 385.82 15.5833 386.04 15.99C386.26 16.39 386.37 16.85 386.37 17.37L386.36 17.59ZM383.82 15.31C383.313 15.31 382.887 15.4733 382.54 15.8C382.2 16.12 382.007 16.54 381.96 17.06H385.69C385.643 16.54 385.447 16.12 385.1 15.8C384.76 15.4733 384.333 15.31 383.82 15.31ZM387.942 14.74H388.652V17.07H391.962V14.74H392.672V20H391.962V17.68H388.652V20H387.942V14.74ZM394.69 14.74H395.4V17.07H398.71V14.74H399.42V20H398.71V17.68H395.4V20H394.69V14.74ZM403.248 14.7C403.934 14.7 404.461 14.8733 404.828 15.22C405.194 15.56 405.378 16.0667 405.378 16.74V20H404.698V19.18C404.538 19.4533 404.301 19.6667 403.988 19.82C403.681 19.9733 403.314 20.05 402.888 20.05C402.301 20.05 401.834 19.91 401.488 19.63C401.141 19.35 400.968 18.98 400.968 18.52C400.968 18.0733 401.128 17.7133 401.448 17.44C401.774 17.1667 402.291 17.03 402.998 17.03H404.668V16.71C404.668 16.2567 404.541 15.9133 404.288 15.68C404.034 15.44 403.664 15.32 403.178 15.32C402.844 15.32 402.524 15.3767 402.218 15.49C401.911 15.5967 401.648 15.7467 401.428 15.94L401.108 15.41C401.374 15.1833 401.694 15.01 402.068 14.89C402.441 14.7633 402.834 14.7 403.248 14.7ZM402.998 19.49C403.398 19.49 403.741 19.4 404.028 19.22C404.314 19.0333 404.528 18.7667 404.668 18.42V17.56H403.018C402.118 17.56 401.668 17.8733 401.668 18.5C401.668 18.8067 401.784 19.05 402.018 19.23C402.251 19.4033 402.578 19.49 402.998 19.49ZM411.308 14.74V20H410.658V18.26H409.008H408.808L407.588 20H406.818L408.128 18.16C407.721 18.0467 407.408 17.8533 407.188 17.58C406.968 17.3067 406.858 16.96 406.858 16.54C406.858 15.9533 407.058 15.5067 407.458 15.2C407.858 14.8933 408.404 14.74 409.098 14.74H411.308ZM407.578 16.56C407.578 17.34 408.074 17.73 409.068 17.73H410.658V15.37H409.118C408.091 15.37 407.578 15.7667 407.578 16.56ZM418.119 20.05C417.613 20.05 417.156 19.9367 416.749 19.71C416.343 19.4767 416.023 19.1567 415.789 18.75C415.556 18.3433 415.439 17.8833 415.439 17.37C415.439 16.8567 415.556 16.3967 415.789 15.99C416.023 15.5833 416.343 15.2667 416.749 15.04C417.156 14.8133 417.613 14.7 418.119 14.7C418.626 14.7 419.083 14.8133 419.489 15.04C419.896 15.2667 420.213 15.5833 420.439 15.99C420.673 16.3967 420.789 16.8567 420.789 17.37C420.789 17.8833 420.673 18.3433 420.439 18.75C420.213 19.1567 419.896 19.4767 419.489 19.71C419.083 19.9367 418.626 20.05 418.119 20.05ZM418.119 19.42C418.493 19.42 418.826 19.3367 419.119 19.17C419.419 18.9967 419.653 18.7533 419.819 18.44C419.986 18.1267 420.069 17.77 420.069 17.37C420.069 16.97 419.986 16.6133 419.819 16.3C419.653 15.9867 419.419 15.7467 419.119 15.58C418.826 15.4067 418.493 15.32 418.119 15.32C417.746 15.32 417.409 15.4067 417.109 15.58C416.816 15.7467 416.583 15.9867 416.409 16.3C416.243 16.6133 416.159 16.97 416.159 17.37C416.159 17.77 416.243 18.1267 416.409 18.44C416.583 18.7533 416.816 18.9967 417.109 19.17C417.409 19.3367 417.746 19.42 418.119 19.42ZM425.411 20L423.741 17.8L422.061 20H421.261L423.341 17.3L421.361 14.74H422.161L423.741 16.8L425.321 14.74H426.101L424.121 17.3L426.221 20H425.411ZM430.095 14.7C430.588 14.7 431.035 14.8133 431.435 15.04C431.835 15.26 432.148 15.5733 432.375 15.98C432.602 16.3867 432.715 16.85 432.715 17.37C432.715 17.8967 432.602 18.3633 432.375 18.77C432.148 19.1767 431.835 19.4933 431.435 19.72C431.042 19.94 430.595 20.05 430.095 20.05C429.668 20.05 429.282 19.9633 428.935 19.79C428.595 19.61 428.315 19.35 428.095 19.01V21.94H427.385V14.74H428.065V15.78C428.278 15.4333 428.558 15.1667 428.905 14.98C429.258 14.7933 429.655 14.7 430.095 14.7ZM430.045 19.42C430.412 19.42 430.745 19.3367 431.045 19.17C431.345 18.9967 431.578 18.7533 431.745 18.44C431.918 18.1267 432.005 17.77 432.005 17.37C432.005 16.97 431.918 16.6167 431.745 16.31C431.578 15.9967 431.345 15.7533 431.045 15.58C430.745 15.4067 430.412 15.32 430.045 15.32C429.672 15.32 429.335 15.4067 429.035 15.58C428.742 15.7533 428.508 15.9967 428.335 16.31C428.168 16.6167 428.085 16.97 428.085 17.37C428.085 17.77 428.168 18.1267 428.335 18.44C428.508 18.7533 428.742 18.9967 429.035 19.17C429.335 19.3367 429.672 19.42 430.045 19.42ZM436.021 14.7C436.708 14.7 437.235 14.8733 437.601 15.22C437.968 15.56 438.151 16.0667 438.151 16.74V20H437.471V19.18C437.311 19.4533 437.075 19.6667 436.761 19.82C436.455 19.9733 436.088 20.05 435.661 20.05C435.075 20.05 434.608 19.91 434.261 19.63C433.915 19.35 433.741 18.98 433.741 18.52C433.741 18.0733 433.901 17.7133 434.221 17.44C434.548 17.1667 435.065 17.03 435.771 17.03H437.441V16.71C437.441 16.2567 437.315 15.9133 437.061 15.68C436.808 15.44 436.438 15.32 435.951 15.32C435.618 15.32 435.298 15.3767 434.991 15.49C434.685 15.5967 434.421 15.7467 434.201 15.94L433.881 15.41C434.148 15.1833 434.468 15.01 434.841 14.89C435.215 14.7633 435.608 14.7 436.021 14.7ZM435.771 19.49C436.171 19.49 436.515 19.4 436.801 19.22C437.088 19.0333 437.301 18.7667 437.441 18.42V17.56H435.791C434.891 17.56 434.441 17.8733 434.441 18.5C434.441 18.8067 434.558 19.05 434.791 19.23C435.025 19.4033 435.351 19.49 435.771 19.49ZM440.041 14.74H440.751V17.07H444.061V14.74H444.771V20H444.061V17.68H440.751V20H440.041V14.74ZM448.599 14.7C449.286 14.7 449.813 14.8733 450.179 15.22C450.546 15.56 450.729 16.0667 450.729 16.74V20H450.049V19.18C449.889 19.4533 449.653 19.6667 449.339 19.82C449.033 19.9733 448.666 20.05 448.239 20.05C447.653 20.05 447.186 19.91 446.839 19.63C446.493 19.35 446.319 18.98 446.319 18.52C446.319 18.0733 446.479 17.7133 446.799 17.44C447.126 17.1667 447.643 17.03 448.349 17.03H450.019V16.71C450.019 16.2567 449.893 15.9133 449.639 15.68C449.386 15.44 449.016 15.32 448.529 15.32C448.196 15.32 447.876 15.3767 447.569 15.49C447.263 15.5967 446.999 15.7467 446.779 15.94L446.459 15.41C446.726 15.1833 447.046 15.01 447.419 14.89C447.793 14.7633 448.186 14.7 448.599 14.7ZM448.349 19.49C448.749 19.49 449.093 19.4 449.379 19.22C449.666 19.0333 449.879 18.7667 450.019 18.42V17.56H448.369C447.469 17.56 447.019 17.8733 447.019 18.5C447.019 18.8067 447.136 19.05 447.369 19.23C447.603 19.4033 447.929 19.49 448.349 19.49ZM341.36 29.28C342.073 29.4467 342.43 29.8767 342.43 30.57C342.43 31.03 342.26 31.3833 341.92 31.63C341.58 31.8767 341.073 32 340.4 32H338.01V26.74H340.33C340.93 26.74 341.4 26.8567 341.74 27.09C342.08 27.3233 342.25 27.6567 342.25 28.09C342.25 28.3767 342.17 28.6233 342.01 28.83C341.857 29.03 341.64 29.18 341.36 29.28ZM338.7 29.08H340.28C340.687 29.08 340.997 29.0033 341.21 28.85C341.43 28.6967 341.54 28.4733 341.54 28.18C341.54 27.8867 341.43 27.6667 341.21 27.52C340.997 27.3733 340.687 27.3 340.28 27.3H338.7V29.08ZM340.37 31.44C340.823 31.44 341.163 31.3667 341.39 31.22C341.617 31.0733 341.73 30.8433 341.73 30.53C341.73 30.2167 341.627 29.9867 341.42 29.84C341.213 29.6867 340.887 29.61 340.44 29.61H338.7V31.44H340.37ZM345.904 26.7C346.591 26.7 347.117 26.8733 347.484 27.22C347.851 27.56 348.034 28.0667 348.034 28.74V32H347.354V31.18C347.194 31.4533 346.957 31.6667 346.644 31.82C346.337 31.9733 345.971 32.05 345.544 32.05C344.957 32.05 344.491 31.91 344.144 31.63C343.797 31.35 343.624 30.98 343.624 30.52C343.624 30.0733 343.784 29.7133 344.104 29.44C344.431 29.1667 344.947 29.03 345.654 29.03H347.324V28.71C347.324 28.2567 347.197 27.9133 346.944 27.68C346.691 27.44 346.321 27.32 345.834 27.32C345.501 27.32 345.181 27.3767 344.874 27.49C344.567 27.5967 344.304 27.7467 344.084 27.94L343.764 27.41C344.031 27.1833 344.351 27.01 344.724 26.89C345.097 26.7633 345.491 26.7 345.904 26.7ZM345.654 31.49C346.054 31.49 346.397 31.4 346.684 31.22C346.971 31.0333 347.184 30.7667 347.324 30.42V29.56H345.674C344.774 29.56 344.324 29.8733 344.324 30.5C344.324 30.8067 344.441 31.05 344.674 31.23C344.907 31.4033 345.234 31.49 345.654 31.49ZM357.184 26.74V32H349.924V26.74H350.634V31.38H353.214V26.74H353.924V31.38H356.474V26.74H357.184ZM363.811 29.59H359.411C359.451 30.1367 359.661 30.58 360.041 30.92C360.421 31.2533 360.901 31.42 361.481 31.42C361.808 31.42 362.108 31.3633 362.381 31.25C362.655 31.13 362.891 30.9567 363.091 30.73L363.491 31.19C363.258 31.47 362.965 31.6833 362.611 31.83C362.265 31.9767 361.881 32.05 361.461 32.05C360.921 32.05 360.441 31.9367 360.021 31.71C359.608 31.4767 359.285 31.1567 359.051 30.75C358.818 30.3433 358.701 29.8833 358.701 29.37C358.701 28.8567 358.811 28.3967 359.031 27.99C359.258 27.5833 359.565 27.2667 359.951 27.04C360.345 26.8133 360.785 26.7 361.271 26.7C361.758 26.7 362.195 26.8133 362.581 27.04C362.968 27.2667 363.271 27.5833 363.491 27.99C363.711 28.39 363.821 28.85 363.821 29.37L363.811 29.59ZM361.271 27.31C360.765 27.31 360.338 27.4733 359.991 27.8C359.651 28.12 359.458 28.54 359.411 29.06H363.141C363.095 28.54 362.898 28.12 362.551 27.8C362.211 27.4733 361.785 27.31 361.271 27.31ZM369.113 27.37H366.103V32H365.393V26.74H369.113V27.37ZM372.065 32.05C371.558 32.05 371.101 31.9367 370.695 31.71C370.288 31.4767 369.968 31.1567 369.735 30.75C369.501 30.3433 369.385 29.8833 369.385 29.37C369.385 28.8567 369.501 28.3967 369.735 27.99C369.968 27.5833 370.288 27.2667 370.695 27.04C371.101 26.8133 371.558 26.7 372.065 26.7C372.571 26.7 373.028 26.8133 373.435 27.04C373.841 27.2667 374.158 27.5833 374.385 27.99C374.618 28.3967 374.735 28.8567 374.735 29.37C374.735 29.8833 374.618 30.3433 374.385 30.75C374.158 31.1567 373.841 31.4767 373.435 31.71C373.028 31.9367 372.571 32.05 372.065 32.05ZM372.065 31.42C372.438 31.42 372.771 31.3367 373.065 31.17C373.365 30.9967 373.598 30.7533 373.765 30.44C373.931 30.1267 374.015 29.77 374.015 29.37C374.015 28.97 373.931 28.6133 373.765 28.3C373.598 27.9867 373.365 27.7467 373.065 27.58C372.771 27.4067 372.438 27.32 372.065 27.32C371.691 27.32 371.355 27.4067 371.055 27.58C370.761 27.7467 370.528 27.9867 370.355 28.3C370.188 28.6133 370.105 28.97 370.105 29.37C370.105 29.77 370.188 30.1267 370.355 30.44C370.528 30.7533 370.761 30.9967 371.055 31.17C371.355 31.3367 371.691 31.42 372.065 31.42ZM381.039 32.05C380.533 32.05 380.076 31.9367 379.669 31.71C379.263 31.4767 378.943 31.1567 378.709 30.75C378.476 30.3433 378.359 29.8833 378.359 29.37C378.359 28.8567 378.476 28.3967 378.709 27.99C378.943 27.5833 379.263 27.2667 379.669 27.04C380.076 26.8133 380.533 26.7 381.039 26.7C381.546 26.7 382.003 26.8133 382.409 27.04C382.816 27.2667 383.133 27.5833 383.359 27.99C383.593 28.3967 383.709 28.8567 383.709 29.37C383.709 29.8833 383.593 30.3433 383.359 30.75C383.133 31.1567 382.816 31.4767 382.409 31.71C382.003 31.9367 381.546 32.05 381.039 32.05ZM381.039 31.42C381.413 31.42 381.746 31.3367 382.039 31.17C382.339 30.9967 382.573 30.7533 382.739 30.44C382.906 30.1267 382.989 29.77 382.989 29.37C382.989 28.97 382.906 28.6133 382.739 28.3C382.573 27.9867 382.339 27.7467 382.039 27.58C381.746 27.4067 381.413 27.32 381.039 27.32C380.666 27.32 380.329 27.4067 380.029 27.58C379.736 27.7467 379.503 27.9867 379.329 28.3C379.163 28.6133 379.079 28.97 379.079 29.37C379.079 29.77 379.163 30.1267 379.329 30.44C379.503 30.7533 379.736 30.9967 380.029 31.17C380.329 31.3367 380.666 31.42 381.039 31.42ZM387.777 26.87C388.263 26.87 388.697 26.98 389.077 27.2C389.463 27.4133 389.763 27.7167 389.977 28.11C390.19 28.4967 390.297 28.94 390.297 29.44C390.297 29.9533 390.183 30.41 389.957 30.81C389.737 31.2033 389.427 31.51 389.027 31.73C388.627 31.95 388.167 32.06 387.647 32.06C386.773 32.06 386.097 31.7533 385.617 31.14C385.137 30.5267 384.897 29.68 384.897 28.6C384.897 27.4733 385.11 26.61 385.537 26.01C385.97 25.41 386.643 25.0033 387.557 24.79L389.917 24.25L390.037 24.9L387.817 25.41C387.063 25.5767 386.51 25.8733 386.157 26.3C385.803 26.72 385.61 27.3433 385.577 28.17C385.79 27.7633 386.087 27.4467 386.467 27.22C386.847 26.9867 387.283 26.87 387.777 26.87ZM387.667 31.47C388.033 31.47 388.36 31.3867 388.647 31.22C388.94 31.0467 389.167 30.8067 389.327 30.5C389.493 30.1933 389.577 29.8467 389.577 29.46C389.577 29.0733 389.497 28.7333 389.337 28.44C389.177 28.1467 388.95 27.92 388.657 27.76C388.37 27.5933 388.04 27.51 387.667 27.51C387.293 27.51 386.96 27.5933 386.667 27.76C386.38 27.92 386.153 28.1467 385.987 28.44C385.827 28.7333 385.747 29.0733 385.747 29.46C385.747 29.8467 385.827 30.1933 385.987 30.5C386.153 30.8067 386.383 31.0467 386.677 31.22C386.97 31.3867 387.3 31.47 387.667 31.47ZM394.493 28.58C395.14 28.58 395.633 28.7267 395.973 29.02C396.313 29.3133 396.483 29.7267 396.483 30.26C396.483 30.8267 396.3 31.26 395.933 31.56C395.567 31.8533 395.04 32 394.353 32H392.273V27.37H390.633V26.74H392.983V28.58H394.493ZM394.343 31.45C394.81 31.45 395.163 31.35 395.403 31.15C395.643 30.95 395.763 30.6533 395.763 30.26C395.763 29.5 395.29 29.12 394.343 29.12H392.983V31.45H394.343ZM402.434 29.59H398.034C398.074 30.1367 398.284 30.58 398.664 30.92C399.044 31.2533 399.524 31.42 400.104 31.42C400.431 31.42 400.731 31.3633 401.004 31.25C401.278 31.13 401.514 30.9567 401.714 30.73L402.114 31.19C401.881 31.47 401.588 31.6833 401.234 31.83C400.888 31.9767 400.504 32.05 400.084 32.05C399.544 32.05 399.064 31.9367 398.644 31.71C398.231 31.4767 397.908 31.1567 397.674 30.75C397.441 30.3433 397.324 29.8833 397.324 29.37C397.324 28.8567 397.434 28.3967 397.654 27.99C397.881 27.5833 398.188 27.2667 398.574 27.04C398.968 26.8133 399.408 26.7 399.894 26.7C400.381 26.7 400.818 26.8133 401.204 27.04C401.591 27.2667 401.894 27.5833 402.114 27.99C402.334 28.39 402.444 28.85 402.444 29.37L402.434 29.59ZM399.894 27.31C399.388 27.31 398.961 27.4733 398.614 27.8C398.274 28.12 398.081 28.54 398.034 29.06H401.764C401.718 28.54 401.521 28.12 401.174 27.8C400.834 27.4733 400.408 27.31 399.894 27.31ZM405.926 29.66H404.726V32H404.016V26.74H404.726V29.05H405.936L407.786 26.74H408.556L406.486 29.29L408.706 32H407.866L405.926 29.66ZM413.419 27.37H411.429V32H410.719V27.37H408.729V26.74H413.419V27.37ZM416.256 26.7C416.942 26.7 417.469 26.8733 417.836 27.22C418.202 27.56 418.386 28.0667 418.386 28.74V32H417.706V31.18C417.546 31.4533 417.309 31.6667 416.996 31.82C416.689 31.9733 416.322 32.05 415.896 32.05C415.309 32.05 414.842 31.91 414.496 31.63C414.149 31.35 413.976 30.98 413.976 30.52C413.976 30.0733 414.136 29.7133 414.456 29.44C414.782 29.1667 415.299 29.03 416.006 29.03H417.676V28.71C417.676 28.2567 417.549 27.9133 417.296 27.68C417.042 27.44 416.672 27.32 416.186 27.32C415.852 27.32 415.532 27.3767 415.226 27.49C414.919 27.5967 414.656 27.7467 414.436 27.94L414.116 27.41C414.382 27.1833 414.702 27.01 415.076 26.89C415.449 26.7633 415.842 26.7 416.256 26.7ZM416.006 31.49C416.406 31.49 416.749 31.4 417.036 31.22C417.322 31.0333 417.536 30.7667 417.676 30.42V29.56H416.026C415.126 29.56 414.676 29.8733 414.676 30.5C414.676 30.8067 414.792 31.05 415.026 31.23C415.259 31.4033 415.586 31.49 416.006 31.49Z" fill="#434C5E"/>
</svg>
