<svg width="19" height="20" viewBox="0 0 19 20" fill="none" xmlns="http://www.w3.org/2000/svg">
<path d="M7.03528 17.3889C7.69112 17.3889 8.22278 16.8573 8.22278 16.2014C8.22278 15.5456 7.69112 15.0139 7.03528 15.0139C6.37944 15.0139 5.84778 15.5456 5.84778 16.2014C5.84778 16.8573 6.37944 17.3889 7.03528 17.3889Z" fill="white"/>
<path d="M14.25 17.3889C14.9058 17.3889 15.4375 16.8573 15.4375 16.2014C15.4375 15.5456 14.9058 15.0139 14.25 15.0139C13.5942 15.0139 13.0625 15.5456 13.0625 16.2014C13.0625 16.8573 13.5942 17.3889 14.25 17.3889Z" fill="white"/>
<path d="M17.4589 3.33415C17.4098 3.2736 17.3479 3.22469 17.2776 3.19093C17.2074 3.15716 17.1305 3.13938 17.0525 3.13887H6.06421L6.40727 4.19442H16.3612L14.952 10.5278H7.03533L4.62338 2.89081C4.59729 2.80978 4.55199 2.73626 4.49133 2.67652C4.43068 2.61678 4.35647 2.57261 4.27505 2.54776L2.11116 1.88276C2.04462 1.86231 1.97471 1.85517 1.90541 1.86174C1.83612 1.86832 1.7688 1.88847 1.70729 1.92106C1.58307 1.98688 1.49009 2.09935 1.4488 2.23373C1.40751 2.36811 1.42128 2.51338 1.4871 2.6376C1.55292 2.76182 1.66539 2.8548 1.79977 2.89609L3.69449 3.47665L6.11699 11.1294L5.25144 11.8366L5.18283 11.9053C4.96873 12.152 4.84737 12.4657 4.83966 12.7922C4.83196 13.1188 4.93838 13.4379 5.1406 13.6944C5.28445 13.8694 5.46725 14.0082 5.67437 14.0998C5.88148 14.1915 6.10717 14.2334 6.33338 14.2222H15.142C15.282 14.2222 15.4162 14.1666 15.5152 14.0676C15.6142 13.9686 15.6698 13.8344 15.6698 13.6944C15.6698 13.5544 15.6142 13.4202 15.5152 13.3212C15.4162 13.2223 15.282 13.1666 15.142 13.1666H6.24894C6.18816 13.1646 6.12895 13.1469 6.07702 13.1152C6.02509 13.0836 5.98219 13.0391 5.95248 12.986C5.92277 12.933 5.90724 12.8731 5.9074 12.8123C5.90756 12.7515 5.92339 12.6918 5.95338 12.6389L7.22533 11.5833H15.3742C15.4962 11.5863 15.6155 11.5469 15.7117 11.4718C15.8079 11.3968 15.8752 11.2907 15.902 11.1716L17.575 3.78276C17.5911 3.70407 17.589 3.62277 17.5689 3.54503C17.5487 3.46729 17.5111 3.39516 17.4589 3.33415Z" fill="white"/>
</svg>
